<?xml version="1.0" encoding="UTF-8"?>
<!DOCTYPE svg PUBLIC "-//W3C//DTD SVG 1.1//EN" "http://www.w3.org/Graphics/SVG/1.1/DTD/svg11.dtd">
<!-- Creator: CorelDRAW 2020 (64-Bit) -->
<svg xmlns="http://www.w3.org/2000/svg" xml:space="preserve" width="0.416661in" height="0.416661in" version="1.1" style="shape-rendering:geometricPrecision; text-rendering:geometricPrecision; image-rendering:optimizeQuality; fill-rule:evenodd; clip-rule:evenodd"
viewBox="0 0 416.66 416.66"
 xmlns:xlink="http://www.w3.org/1999/xlink"
 xmlns:xodm="http://www.corel.com/coreldraw/odm/2003">
 <defs>
  <style type="text/css">
   <![CDATA[
    .fil0 {fill:#FEFEFE;fill-rule:nonzero}
   ]]>
  </style>
 </defs>
 <g id="Layer_x0020_1">
  <metadata id="CorelCorpID_0Corel-Layer"/>
  <path class="fil0" d="M278.54 123.46c-8.1,0 -14.65,6.57 -14.65,14.66 0,8.1 6.56,14.66 14.65,14.66 8.1,0 14.66,-6.56 14.66,-14.66 0,-8.09 -6.56,-14.66 -14.66,-14.66z"/>
  <path class="fil0" d="M213.39 243.27c-21.76,0 -39.45,-17.69 -39.45,-39.44 0,-21.74 17.69,-39.44 39.45,-39.44 21.74,0 39.43,17.7 39.43,39.44 0,21.74 -17.69,39.44 -39.43,39.44zm0 -101c-33.96,0 -61.58,27.61 -61.58,61.56 0,33.95 27.62,61.57 61.58,61.57 33.94,0 61.56,-27.61 61.56,-61.57 0,-33.95 -27.63,-61.56 -61.56,-61.56z"/>
  <path class="fil0" d="M162.44 102.35c-28.43,0 -51.56,23.13 -51.56,51.57l0 99.82c0,28.43 23.13,51.57 51.56,51.57l99.82 0c28.44,0 51.59,-23.14 51.59,-51.57l0 -99.82c0,-28.44 -23.14,-51.57 -51.59,-51.57l-99.82 0zm99.82 226.48l-99.82 0c-41.4,0 -75.09,-33.69 -75.09,-75.09l0 -99.82c0,-41.4 33.69,-75.09 75.09,-75.09l99.82 0c41.4,0 75.1,33.69 75.1,75.09l0 99.82c0,41.4 -33.7,75.09 -75.1,75.09z"/>
 </g>
</svg>
