<?xml version="1.0" encoding="UTF-8"?>
<!DOCTYPE svg PUBLIC "-//W3C//DTD SVG 1.1//EN" "http://www.w3.org/Graphics/SVG/1.1/DTD/svg11.dtd">
<!-- Creator: CorelDRAW 2020 (64-Bit) -->
<svg xmlns="http://www.w3.org/2000/svg" xml:space="preserve" width="0.416661in" height="0.416661in" version="1.1" style="shape-rendering:geometricPrecision; text-rendering:geometricPrecision; image-rendering:optimizeQuality; fill-rule:evenodd; clip-rule:evenodd"
viewBox="0 0 416.66 416.66"
 xmlns:xlink="http://www.w3.org/1999/xlink"
 xmlns:xodm="http://www.corel.com/coreldraw/odm/2003">
 <defs>
  <style type="text/css">
   <![CDATA[
    .fil0 {fill:#FEFEFE;fill-rule:nonzero}
   ]]>
  </style>
 </defs>
 <g id="Layer_x0020_1">
  <metadata id="CorelCorpID_0Corel-Layer"/>
  <path class="fil0" d="M186.75 271.29c0.18,-0.67 0.39,-1.35 0.63,-2.15 1.59,1.98 2.91,3.94 4.56,5.61 21.3,21.67 67.47,19.33 95.96,-15.99 24.75,-30.74 26.7,-74.23 24,-91.87 -5.91,-38.72 -37.49,-72.85 -87.44,-78.53 -41.82,-4.74 -87.63,10.88 -112.26,49.5 -22.23,34.86 -17.42,76.04 -0.61,96.85 4.93,6.12 11.02,10.78 18.31,13.73 3.71,1.51 6.79,0.17 7.83,-3.51 1.37,-4.95 2.49,-9.96 3.77,-14.94 0.83,-3.2 -1.11,-5.13 -3.62,-8.3 -19.79,-24.83 -9.83,-79.19 34.02,-99.47 38.26,-17.7 98.53,-5.81 101.8,49.17 1.65,27.57 -7.04,66.48 -29.41,82.7 -24.27,17.61 -52.65,0.46 -46.57,-23.65 7.34,-29.22 16.9,-48.99 13.3,-64.1 -5.87,-24.43 -39.44,-22.16 -48.79,7.44 -4.31,13.72 -3.34,27.24 1.6,40.57 0.44,1.19 0.78,2.29 0.48,3.61 -20.64,86.81 -22.62,92.3 -23.15,108.32 -0.16,4.64 0.05,9.27 0.23,13.89 5.96,2.66 12.02,5.09 18.31,7.04 1.74,-2.76 3.54,-5.5 5.17,-8.35 10.5,-18.61 11.64,-27.51 21.87,-67.59z"/>
 </g>
</svg>
