<?xml version="1.0" encoding="UTF-8"?>
<!DOCTYPE svg PUBLIC "-//W3C//DTD SVG 1.1//EN" "http://www.w3.org/Graphics/SVG/1.1/DTD/svg11.dtd">
<!-- Creator: CorelDRAW 2020 (64-Bit) -->
<svg xmlns="http://www.w3.org/2000/svg" xml:space="preserve" width="0.416661in" height="0.416661in" version="1.1" style="shape-rendering:geometricPrecision; text-rendering:geometricPrecision; image-rendering:optimizeQuality; fill-rule:evenodd; clip-rule:evenodd"
viewBox="0 0 416.66 416.66"
 xmlns:xlink="http://www.w3.org/1999/xlink"
 xmlns:xodm="http://www.corel.com/coreldraw/odm/2003">
 <defs>
  <style type="text/css">
   <![CDATA[
    .fil0 {fill:#FEFEFE;fill-rule:nonzero}
   ]]>
  </style>
 </defs>
 <g id="Layer_x0020_1">
  <metadata id="CorelCorpID_0Corel-Layer"/>
  <path class="fil0" d="M358.43 119.33c-8.78,3.96 -18.48,6.37 -27.93,7.96 4.5,-0.74 11.09,-8.87 13.73,-12.17 4.04,-5.02 7.39,-10.74 9.28,-16.91 0.23,-0.49 0.42,-1.09 -0.06,-1.46 -0.61,-0.24 -1.01,-0.11 -1.49,0.13 -10.56,5.65 -21.49,9.76 -33.11,12.67 -0.98,0.24 -1.69,0 -2.31,-0.6 -0.94,-1.09 -1.85,-2.12 -2.89,-2.96 -4.87,-4.17 -10.12,-7.42 -16.03,-9.84 -7.78,-3.16 -16.25,-4.5 -24.61,-3.95 -8.13,0.53 -16.12,2.82 -23.34,6.59 -7.24,3.78 -13.69,9.04 -18.84,15.39 -5.31,6.55 -9.24,14.3 -11.25,22.52 -1.93,7.93 -1.78,15.77 -0.59,23.78 0.19,1.33 0.06,1.52 -1.14,1.33 -45.5,-6.77 -83.21,-23.04 -113.8,-57.93 -1.33,-1.52 -2.06,-1.52 -3.15,0.11 -13.4,20.09 -6.89,52.34 9.85,68.19 2.23,2.12 4.52,4.22 6.98,6.16 -0.9,0.19 -12.04,-1.03 -21.94,-6.16 -1.35,-0.85 -2.01,-0.36 -2.13,1.15 -0.12,2.18 0.07,4.17 0.37,6.53 2.57,20.34 16.67,39.17 35.96,46.52 2.29,0.97 4.83,1.82 7.3,2.23 -4.41,0.96 -8.93,1.66 -21.54,0.66 -1.56,-0.3 -2.16,0.49 -1.56,1.99 9.48,25.84 29.94,33.53 45.26,37.89 2.04,0.37 4.09,0.37 6.16,0.85 -0.13,0.19 -0.24,0.19 -0.37,0.36 -5.07,7.76 -22.69,13.53 -30.89,16.39 -14.93,5.21 -31.18,7.56 -46.94,6 -2.52,-0.36 -3.05,-0.34 -3.74,0 -0.7,0.43 -0.08,1.04 0.73,1.69 3.19,2.12 6.44,3.98 9.76,5.8 10.02,5.31 20.46,9.54 31.38,12.55 56.38,15.58 119.91,4.13 162.25,-37.93 33.24,-33.04 44.88,-78.6 44.88,-124.21 0,-1.78 2.12,-2.76 3.38,-3.71 8.65,-6.5 15.63,-14.27 22.08,-22.96 1.44,-1.95 1.46,-3.68 1.46,-4.39 0,-0.13 0,-0.24 0,-0.24 0,-0.73 -0.02,-0.5 -1.13,0z"/>
 </g>
</svg>
