<?xml version="1.0" encoding="UTF-8"?>
<!DOCTYPE svg PUBLIC "-//W3C//DTD SVG 1.1//EN" "http://www.w3.org/Graphics/SVG/1.1/DTD/svg11.dtd">
<!-- Creator: CorelDRAW 2020 (64-Bit) -->
<svg xmlns="http://www.w3.org/2000/svg" xml:space="preserve" width="0.416661in" height="0.416661in" version="1.1" style="shape-rendering:geometricPrecision; text-rendering:geometricPrecision; image-rendering:optimizeQuality; fill-rule:evenodd; clip-rule:evenodd"
viewBox="0 0 416.66 416.66"
 xmlns:xlink="http://www.w3.org/1999/xlink"
 xmlns:xodm="http://www.corel.com/coreldraw/odm/2003">
 <defs>
  <style type="text/css">
   <![CDATA[
    .fil0 {fill:#FEFEFE;fill-rule:nonzero}
   ]]>
  </style>
 </defs>
 <g id="Layer_x0020_1">
  <metadata id="CorelCorpID_0Corel-Layer"/>
  <path class="fil0" d="M249.93 202.67l-67.78 33.54c-2.68,1.43 -11.69,-0.49 -11.69,-3.51l0 -68.83c0,-3.06 9.1,-4.98 11.76,-3.46l64.88 35.3c2.72,1.55 5.57,5.48 2.83,6.98zm88.89 -40.45c0,-32.63 -26.47,-59.11 -59.11,-59.11l-151.16 0c-32.64,0 -59.11,26.48 -59.11,59.11l0 70.34c0,32.65 26.47,59.11 59.11,59.11l151.16 0c32.64,0 59.11,-26.46 59.11,-59.11l0 -70.34z"/>
 </g>
</svg>
